<svg width="308" height="444" viewBox="0 0 308 444" fill="none" xmlns="http://www.w3.org/2000/svg">
<path d="M271.716 330.755C271.716 330.755 305.374 345.611 307.349 374.479C309.103 400.124 295.607 426.448 271.716 438.749C244.423 452.772 232.57 429.44 241.209 414.69C249.849 399.94 297.904 377.287 265.237 348.282C265.237 335.886 271.716 330.755 271.716 330.755Z" fill="#2B2B2B"/>
<path d="M45.8983 311.964C45.8983 311.964 44.8763 334.3 43.0325 336.961C41.1887 339.621 24.5945 344.236 23.6779 349.462C22.7612 354.687 22.8613 363.806 31.2585 365.445C39.6557 367.083 57.5985 366.677 62.1975 366.498C66.7965 366.319 76.3315 353.381 80.5301 323.875C55.5335 312.459 45.8983 311.964 45.8983 311.964Z" fill="#2B2B2B"/>
<path d="M89.491 32.4492C89.491 32.4492 76.9374 8.55357 68.1661 3.02217C59.3949 -2.50923 53.5843 0.187982 51.4297 5.99332C49.2751 11.7987 48.7272 35.1464 48.7272 35.1464C48.7272 35.1464 24.4312 57.6882 15.2544 82.6585C6.07751 107.629 4.04933 158.249 61.9552 164.987C119.861 171.725 179.526 152.581 205.045 135.302C196.668 93.0523 184.789 37.9806 182.087 22.7508C179.384 7.52104 171.024 -0.0332761 161.842 0.0194039C152.66 0.0720839 141.302 21.3811 137.814 34.3404C113.655 31.501 89.491 32.4492 89.491 32.4492Z" fill="#E3B04B"/>
<path opacity="0.3" d="M144.268 35.6416C144.268 35.6416 152.259 9.86001 159.213 9.99697C165.44 10.1181 168.321 29.4886 168.843 39.0289C168.861 39.3679 168.801 39.7066 168.667 40.0185C168.533 40.3304 168.329 40.6072 168.07 40.8274C167.812 41.0476 167.506 41.2052 167.177 41.288C166.848 41.3708 166.504 41.3765 166.172 41.3047C157.68 39.4925 144.268 35.6416 144.268 35.6416Z" fill="white"/>
<path opacity="0.3" d="M48.585 35.236C48.585 35.236 47.9317 8.04789 53.716 6.01445C59.5898 3.94412 68.9932 21.1389 72.7967 29.9206C72.9303 30.2328 72.9901 30.5716 72.9717 30.9107C72.9533 31.2498 72.8571 31.5801 72.6906 31.876C72.524 32.172 72.2916 32.4256 72.0113 32.6173C71.7309 32.8089 71.4102 32.9335 71.074 32.9813C62.4872 34.214 48.585 35.236 48.585 35.236Z" fill="white"/>
<path d="M205.045 135.302C209.164 151.906 233.66 196.042 248.643 220.343C263.625 244.644 276.858 275.13 276.036 313.655C275.214 352.18 260.685 362.7 240.551 368.548C220.417 374.395 208.005 372.762 196.3 374.311C184.594 375.86 172.367 380.88 164.444 374.311C156.521 367.742 152.386 363.87 143.567 368.458C134.748 373.047 112.344 371.787 106.496 370.26C100.649 368.732 97.767 357.032 107.55 351C91.5297 356.131 50.6553 351.432 40.8673 311.859C33.0391 280.135 56.6713 214.548 61.9393 199.555C67.3285 184.173 69.7676 175.66 66.7964 161.758C86.3881 156.226 205.045 135.302 205.045 135.302Z" fill="#E3B04B"/>
<path d="M221.77 173.057C221.77 173.057 200.646 196.068 205.045 219.532C208.1 235.894 228.261 244.908 230.421 258.947C232.58 272.986 247.974 296.35 273.887 284.275C270.636 244.096 221.77 173.057 221.77 173.057Z" fill="#2B2B2B"/>
<path d="M161.215 324.908C161.215 324.908 162.268 347.492 181.907 351.184C179.389 356.31 161.483 352.891 160.672 370.797C157.343 368.764 153.202 363.87 143.572 368.458C156.621 346.501 161.215 324.908 161.215 324.908Z" fill="#2B2B2B"/>
<path d="M127.71 239.218C127.742 258.768 125.967 278.244 124.065 297.693C123.122 307.365 122.263 317.069 120.535 326.667C119.26 333.716 117.717 346.354 108.635 347.523C105.653 347.908 105.611 352.654 108.635 352.264C117.738 351.089 121.805 342.892 123.701 334.801C126.077 324.665 127.173 314.256 128.2 303.904C130.307 282.416 132.483 260.88 132.452 239.255C132.452 236.205 127.71 236.2 127.71 239.255V239.218Z" fill="#2B2B2B"/>
<path d="M168.021 277.195C166.541 292.615 163.238 307.787 159.013 322.674C156.906 330.002 154.625 337.266 152.196 344.483C150.984 348.09 149.745 351.69 148.477 355.283C147.249 358.77 146.064 362.331 143.525 365.113C141.47 367.362 144.816 370.723 146.875 368.463C151.869 362.995 153.645 354.94 155.973 348.097C158.607 340.416 161.073 332.688 163.311 324.886C167.789 309.277 171.213 293.373 172.762 277.195C173.057 274.161 168.311 274.182 168.021 277.195Z" fill="#2B2B2B"/>
<path d="M192.122 273.824C184.747 277.364 177.772 283.512 172.346 289.58C166.92 295.649 163.754 303.119 161.973 310.974C160.193 318.828 158.518 327.995 161.589 335.733C164.181 342.26 169.433 347.502 175.596 350.752C184.062 355.22 193.834 356.052 203.248 355.91C206.293 355.868 206.304 351.126 203.248 351.168C193.808 351.311 183.815 350.536 175.654 345.3C167.932 340.343 164.107 332.657 164.802 323.527C165.498 314.398 167.605 304.562 172.704 296.808C175.338 292.788 178.936 289.549 182.529 286.404C186.243 283.148 190.031 280.082 194.503 277.922C197.253 276.6 194.851 272.512 192.112 273.829L192.122 273.824Z" fill="#2B2B2B"/>
<path d="M184.289 350.199C178.172 352.57 171.803 354.635 165.851 357.395C163.609 358.406 161.737 360.089 160.494 362.211C159.251 364.332 158.699 366.788 158.913 369.238C159.181 372.251 163.923 372.277 163.654 369.238C163.18 363.928 166.857 362.015 171.166 360.345L185.553 354.772C188.371 353.681 187.133 349.093 184.294 350.199H184.289Z" fill="#2B2B2B"/>
<path d="M108.64 359.26C107.268 362.181 106.687 365.411 106.954 368.627C107.234 371.64 111.975 371.672 111.696 368.627C111.43 366.25 111.793 363.844 112.749 361.652C113.276 360.477 113.081 359.118 111.901 358.412C110.89 357.806 109.183 358.096 108.656 359.26H108.64Z" fill="#2B2B2B"/>
<path d="M124.37 359.545C122.743 362.669 122.616 366.045 122.722 369.496C122.811 372.541 127.552 372.551 127.463 369.496C127.384 366.946 127.252 364.27 128.464 361.942C129.87 359.234 125.782 356.837 124.37 359.545Z" fill="#2B2B2B"/>
<path d="M67.6288 166.383C67.6288 166.383 141.054 172.557 205.034 135.302C208.5 145.311 213.226 155.952 213.226 155.952C213.226 155.952 149.578 194.582 66.6963 184.273C63.7199 179.363 67.6288 166.383 67.6288 166.383Z" fill="#493818"/>
<path d="M36.0419 86.0774C37.9067 84.4444 53.7212 84.0545 55.3859 85.0923C57.0506 86.1301 55.2068 97.3299 45.7139 97.3299C36.221 97.3299 34.5984 87.3418 36.0419 86.0774Z" fill="#493818"/>
<path d="M104.068 86.0774C105.938 84.4444 121.752 84.0545 123.417 85.0923C125.082 86.1301 123.238 97.3299 113.745 97.3299C104.252 97.3299 102.629 87.3418 104.068 86.0774Z" fill="#493818"/>
<path d="M70.1469 131.798C70.1469 131.798 75.0935 119.292 78.0489 119.561C81.0042 119.83 87.7841 131.798 87.7841 131.798" stroke="#493818" stroke-width="9" stroke-miterlimit="10" stroke-linecap="round"/>
<path d="M2.29503 110.679C8.59306 110.437 14.8997 110.542 21.1861 110.995C24.231 111.216 24.2204 106.475 21.1861 106.254C14.8997 105.801 8.59306 105.695 2.29503 105.938C-0.74461 106.054 -0.760414 110.795 2.29503 110.679Z" fill="#2B2B2B"/>
<path d="M4.40747 134.085C9.64996 131.736 15.0133 129.666 20.4749 127.884C23.3617 126.941 22.129 122.363 19.2158 123.317C13.3692 125.236 7.6279 127.462 2.01579 129.986C-0.760443 131.235 1.64704 135.323 4.40747 134.085V134.085Z" fill="#2B2B2B"/>
<path d="M133.821 111.606C139.027 108.462 144.476 105.738 150.115 103.462C152.912 102.34 151.696 97.7566 148.856 98.8892C142.827 101.295 136.999 104.178 131.43 107.513C128.796 109.093 131.198 113.181 133.821 111.606Z" fill="#2B2B2B"/>
<path d="M135.649 124.86C141.044 125.182 146.417 125.724 151.764 126.52C154.746 126.962 156.036 122.395 153.023 121.947C147.228 121.089 141.465 120.467 135.639 120.119C132.588 119.935 132.599 124.676 135.639 124.86H135.649Z" fill="#2B2B2B"/>
<path d="M75.1146 33.5924C79.4753 33.1186 83.8655 32.9759 88.2477 33.1657C91.2979 33.2974 91.2927 28.5562 88.2477 28.4245C83.8655 28.2347 79.4753 28.3774 75.1146 28.8512C72.1171 29.1778 72.0803 33.9243 75.1146 33.5924Z" fill="#2B2B2B"/>
<path d="M139.837 35.4783C142.993 35.5329 146.111 36.178 149.03 37.3801C151.859 38.518 153.086 33.9348 150.289 32.8075C146.964 31.4747 143.419 30.7727 139.837 30.7371C136.787 30.6897 136.787 35.4309 139.837 35.4783Z" fill="#2B2B2B"/>
<path d="M70.1468 210.081C78.2467 210.081 84.813 203.935 84.813 196.353C84.813 188.771 78.2467 182.624 70.1468 182.624C62.047 182.624 55.4807 188.771 55.4807 196.353C55.4807 203.935 62.047 210.081 70.1468 210.081Z" fill="#FFD3B3"/>
<path d="M75.1815 196.012C75.4568 193.974 72.7138 191.921 69.0549 191.427C65.396 190.933 62.2068 192.185 61.9316 194.223C61.6563 196.262 64.3993 198.315 68.0581 198.809C71.717 199.303 74.9063 198.051 75.1815 196.012Z" fill="#493818"/>
<path d="M68.5665 195.594C66.6528 200.61 66.0649 206.035 66.8597 211.345" stroke="#493818" stroke-width="7" stroke-miterlimit="10"/>
</svg>
