<svg width="889" height="704" viewBox="0 0 889 704" fill="none" xmlns="http://www.w3.org/2000/svg">
<path fill-rule="evenodd" clip-rule="evenodd" d="M595 259C587.365 273.928 579.298 288.46 571.153 303.116C566.841 310.875 552.935 342.965 549.343 344.192C545.476 345.512 521.784 331.58 514.984 328.851C502.902 324 491.42 319.408 478.799 316.418C464.667 313.069 450.422 310.6 435.763 311.845C429.342 312.391 418.715 313.943 425.096 304.923C429.748 298.346 434.254 292.289 440.572 287.538C445.17 284.079 451.911 277.734 457.295 275.424C462.944 272.999 471.275 273.536 477.346 273.679C483.909 273.834 515.19 283.595 516.911 273.422C520.102 276.325 521.96 275.202 525.615 276.62C529.736 278.218 532.305 281.32 536.397 283.193C539.052 284.41 543.946 289.216 546.897 289.245C550.82 289.284 551.876 286.035 554.694 283.637C561.005 278.263 569.41 274.726 576.259 270.057C582.289 265.944 588.031 261.658 595 259ZM526.276 141C525.74 147.815 527.579 154.147 527.535 161.159C527.516 164.219 527.377 167.278 528.306 170.226C529.14 172.869 528.557 177.617 529 180.384C521.194 178.008 506.691 174.483 498.721 177.688C491.102 180.751 490.143 194.918 489.875 201.809C489.692 206.505 491.777 213.74 490.196 218.236C489.459 220.333 489.453 221.01 489.499 221.199L489.505 221.219C489.355 221.142 488.743 221.143 486.586 222.7C484.446 224.242 481.893 225.092 479.779 226.795C475.935 229.897 475.276 233.411 473.379 237.906C471.536 242.272 466.627 246.152 461.147 245.994C465.552 238.01 471.668 230.554 468.158 221.177C465.51 214.099 470.151 205.793 473.803 199.07C475.012 196.843 488.413 179.784 482.475 178.582C478.619 177.8 469.768 195.908 468.075 199.07C463.352 195.877 461.231 191.941 464.866 187.132C467.658 183.439 471.085 180.281 473.803 176.457C478.215 170.25 482.515 162.842 487.755 157.329C496.959 147.649 513.024 141.059 526.276 141ZM489.505 221.219C489.557 221.254 489.535 221.288 489.512 221.236L489.505 221.219ZM649.96 130.423C655.841 136.057 663.28 140.73 668.963 146.643C673.938 151.819 680.637 160.526 683 167.441C670.874 169.778 650.725 176.936 645.897 189.662C627.038 172.35 619.742 204.001 616 217.236C604.963 212.46 607.164 196.56 607.31 187.276C607.423 179.912 611.909 171.195 601.216 170.592C593.225 170.143 585.465 173.397 578.258 176.444C569.265 180.247 559.832 185.935 552.568 192.469L545 186.577C557.415 179.607 563.886 166.28 571.153 154.078C573.471 150.187 576.568 145.861 578.258 141.656C579.427 138.748 580.25 132.878 581.532 130.293C583.549 126.228 603.246 125.109 608.464 124.061C622.239 121.297 638.704 119.639 649.96 130.423Z" fill="#E3B04B"/>
<path fill-rule="evenodd" clip-rule="evenodd" d="M646.821 220.754C651.909 220.494 656.975 221.63 662.063 221.135C657.645 217.287 653.229 213.44 648.811 209.593C646.859 213.02 646.717 216.919 646.821 220.754ZM526.104 141.656C512.934 141.714 496.869 148.329 487.72 157.99C482.873 163.11 478.867 169.986 474.767 175.738C472.018 179.598 469.333 183.323 465.996 186.714C461.129 191.658 462.522 192.788 468.005 196.51C469.741 193.258 478.943 175.87 482.8 176.652C488.66 177.842 477.342 196.208 476.106 198.496C472.445 205.266 466.533 214.722 469.189 221.862C472.694 231.286 467.612 236.658 463.199 244.689C467.833 244.823 468.289 243.016 469.887 239.063C471.938 233.983 474.176 229.739 478.514 226.227C481.873 223.507 487.368 222.362 488.946 219.078C490.898 215.019 489.673 207.004 489.831 202.488C490.072 195.626 490.089 179.405 497.65 176.357C505.572 173.163 519.816 176.173 527.56 178.539C526.593 172.492 523.543 168.543 523.585 161.823C523.63 154.789 525.567 148.514 526.104 141.656ZM424.928 253.872C431.817 251.691 438.348 249.393 445.436 247.907C452.853 246.351 453.349 244.571 457.53 238.21C460.7 233.388 464.545 229.63 463.648 223.725C463.072 219.937 460.998 218.092 461.622 213.832C462.008 211.192 463.24 208.31 464.13 205.799C465.222 202.719 467.485 199.226 462.224 199.073C459.319 198.989 459.177 200.522 457.211 203.095C453.583 207.848 449.407 212.164 445.547 216.722C438.841 224.637 431.73 233.06 424.245 240.386C416.005 248.446 408.893 258.169 403.567 268.489C402.583 270.395 396.602 281.62 399.154 283.821C401.497 285.843 414.53 281.128 416.907 280.577C427.164 278.196 438.807 277.346 448.498 273.021C453.436 270.817 464.332 268.187 468.232 264.778C471.857 261.609 471.694 253.931 469.59 249.464C463.702 253.127 421.132 266.948 424.928 253.872ZM553.089 190.876C559.963 184.667 568.088 179.686 576.576 175.995C584.168 172.694 593.599 169.014 602.046 169.587C612.569 170.3 608.172 178.777 608.134 185.995C608.085 195.574 603.887 209.372 615.324 214.341C619.058 201.079 626.927 169.717 645.778 187.095C650.596 174.343 667.779 170.027 679.879 167.685C677.686 161.242 671.024 155.41 666.407 150.574C660.631 144.525 656.071 137.434 650.284 131.5C638.853 119.779 618.143 123.543 603.671 126.465C598.84 127.439 584.835 128.663 582.495 132.211C581.027 134.436 581.847 139.872 580.759 142.593C579.26 146.341 576.699 149.816 574.645 153.278C567.148 165.911 559.522 178.626 546.692 185.86L553.089 190.876ZM595.041 258.934C588.253 261.538 583.26 265.893 577.24 269.56C569.941 274.007 561.382 278.172 554.831 283.664C552.433 285.673 551.087 289.143 547.778 289.368C544.9 289.564 540.515 286.221 537.963 285.052C533.684 283.087 529.595 280.11 525.294 278.359C521.759 276.92 520.194 277.214 517.136 274.415C515.42 284.626 484.211 275.082 477.664 274.926C471.607 274.782 463.297 275.5 457.66 277.934C452.289 280.253 448.089 285.359 443.492 288.837C437.19 293.607 431.176 298.43 426.535 305.033C420.169 314.086 429.773 311.524 436.178 310.977C450.798 309.727 465.02 313.209 479.114 316.57C491.712 319.573 504.153 323.176 516.213 328.046C522.995 330.786 530.133 333.304 536.512 336.864C539.875 338.742 545.329 343.338 549.188 342.013C552.727 340.799 556.253 330.655 558.398 326.603C562.565 318.738 566.948 311.006 571.25 303.218C579.376 288.507 587.424 273.919 595.041 258.934ZM511.518 453.636C515.701 451.234 522.52 451.881 527.145 450.874C532.372 449.736 537.628 447.883 542.611 445.951C547.658 443.995 552.427 441.994 557.039 439.546C559.148 438.427 561.959 437.325 563.908 435.772C565.479 434.52 566.051 432.194 567.5 431.059C571.278 428.096 572.388 429.955 572.895 424.239C573.445 418.03 569.961 414.514 565.625 409.867C561.742 405.709 556.699 402.115 551.821 399.189C549.663 397.896 547.358 396.44 545.156 395.205C541.824 393.335 537.36 390.226 535.611 394.24C539.252 395.169 540.055 399.819 536.769 401.49C534.964 402.408 532.232 401.06 530.197 402.035C527.056 403.541 524.034 407.744 521.345 410.007C512.519 417.438 504.078 420.224 492.525 420.821C468.386 422.065 443.108 419.312 419.433 415.734C413.34 414.813 407.257 415.811 401.107 415.591C395.123 415.377 388.884 414.069 383.002 413.058C371.672 411.112 359.73 409.51 348.576 406.647C335.087 403.183 321.551 398.703 308.886 392.901C296.738 387.334 283.007 378.137 269.362 377.428C275.185 383.129 283.91 385.325 290.914 389.081C296.638 392.148 305.59 394.118 309.207 399.173C311.561 402.463 312.742 408.506 314.521 412.364C316.488 416.633 318.302 420.97 320.123 425.304C321.952 429.664 323.857 434.026 325.343 438.516C326.262 441.302 326.658 447.078 328.83 448.983C332.295 452.023 343.891 453.372 348.561 454.383C357.279 456.272 367.223 456.021 376.115 456.152C379.79 456.206 383.494 456.707 387.005 456.775C391.936 456.869 391.466 456.016 391.396 451.735C391.355 449.164 391.407 444.489 394.845 446.606C397.188 448.049 395.576 454.439 395.142 456.71C414.77 458.665 435.249 459.648 454.784 458.994C473.995 458.35 492.542 455.873 511.518 453.636ZM600.159 408.58C603.623 383.71 607.843 358.425 612.567 333.877C617.341 309.071 623.081 284.49 629.537 259.777C625.273 258.756 621.008 257.738 616.744 256.718C616.585 261.926 614.824 266.449 614.074 271.632C613.037 278.786 611.057 285.733 609.871 292.864C607.618 306.418 603.444 319.681 599.767 332.899C596.019 346.374 594.767 360.257 591.323 373.8C588.485 384.957 587.035 397.247 585.45 408.717C581.605 436.544 576.127 464.425 571.958 492.266C568.048 518.368 567.656 545 567.881 571.346C568.019 587.431 570.473 603.47 570.345 619.576C570.313 623.558 570.648 627.527 570.855 631.502C571.001 634.306 569.494 642.081 570.772 644.43C571.581 645.917 575.056 647.289 576.286 649.354C578.231 652.622 578.641 656.528 581.766 659C584.299 648.784 583.102 635.299 582.549 624.873C582.013 614.827 583.053 604.444 583.258 594.244C583.658 574.234 584.718 554.517 585.744 534.497C586.869 512.542 590.067 490.053 593.191 468.263C596.032 448.45 597.927 428.286 600.159 408.58ZM507.46 96.6905C506.086 96.5623 504.713 96.4353 503.34 96.3071C503.545 99.201 502.933 103.888 504.973 105.397C506.519 106.541 509.649 106.166 511.523 106.531C517.665 107.732 524.783 108.736 530.88 106.549C533.25 105.699 531.728 104.368 534.99 104.921C538.92 105.589 537.485 106.211 538.62 108.662C539.494 110.554 539.944 113.774 540.936 116.045C542.264 119.085 544.956 124.525 543.805 128.035C542.687 131.447 538.514 132.478 536.741 136.342C535.422 139.215 535.733 143.391 535.048 146.555C534.134 150.775 532.978 154.979 532.467 159.277C531.825 164.692 532.045 171.045 538.754 171.885C544.981 172.666 549.433 170.665 553.608 166.13C561.583 157.473 570.688 145.253 575.373 134.363C575.92 133.091 577.267 130.968 577.079 129.606C576.708 126.912 576.546 129.639 575.692 127.768C574.877 125.979 573.598 124.356 572.846 122.371C570.141 115.24 568.223 107.765 567.139 100.216C566.647 96.7961 566.482 93.4182 566.567 89.9648C566.594 88.7856 567.302 85.2455 566.88 84.4384C566.45 83.62 564.206 83.2428 563.507 82.4307C562.21 80.9259 559.983 76.6768 558.547 75.5504C556.78 74.1663 552.827 75.2625 552.109 72.5094C550.961 68.1031 578.133 60.926 565.439 55.0464C555.961 50.6564 541.424 72.8475 538.11 55.3858C537.536 52.3611 538.63 48.2553 537.303 45.4833C535.837 42.4196 531.845 41.2744 529.057 39.7834C525.499 37.8826 521.905 35.929 518.447 33.8472C516.076 32.4203 512.659 28.6313 510.134 28.2843C511.128 33.4273 509.223 38.525 509.191 43.6579C514.659 42.1783 518.422 42.1468 523.819 44.778C526.389 46.0302 536.073 53.1368 531.167 56.555C527.192 54.2054 522.94 52.1675 518.509 50.7859C516.761 50.2403 514.579 49.4986 512.72 49.4609C508.405 49.3742 509.013 49.8255 507.393 53.079C505.831 56.213 506.167 64.3869 502.738 66.3883C499.193 68.4576 501.927 65.5611 498.9 66.2299C497.173 66.6121 495.292 67.8956 493.711 68.621C495.877 70.9719 500.248 73.1178 501.684 75.7289C503.78 79.5355 503.053 87.409 503.381 91.5739C506.124 90.5921 509.011 90.5519 511.792 89.8227C514.405 89.1363 518.03 86.1657 518.303 90.533C518.607 95.3994 510.914 96.6905 507.46 96.6905ZM543.16 224.816C543.374 220.611 543.608 216.407 544.075 212.219C544.391 209.407 547.061 201.251 545.552 198.781C543.911 196.094 538.41 195.923 535.762 195.278C530.688 194.041 525.821 193.028 520.663 192.211C515.92 191.46 511.45 191.302 506.67 191.084C501.464 190.849 500.174 189.468 499.023 195.204C498.119 199.715 496.906 204.413 496.737 209.031C496.579 213.366 497.888 217.129 493.592 220.05C503.025 220.05 515.311 211.651 523.919 219.161C536.233 229.901 514.804 232.995 509.154 235.366C513.851 237.649 520.824 239.442 523.035 244.656C525.517 250.501 521.916 252.986 516.406 253.454C516.924 255.706 518.908 257.17 519.499 259.879C520.364 263.85 517.557 262.535 521.139 265.608C525.855 269.652 535.564 272.356 541.348 274.932C542.702 275.538 544.073 276.106 545.459 276.638C547.626 278.566 549.225 278.199 550.259 275.535C553.226 273.657 555.867 269.467 558.499 267.03C564.355 261.606 570.818 256.847 577.776 252.931C574.891 251.736 571.441 254.436 568.673 253.122C566.436 252.06 567.279 250.127 565.939 248.68C566.476 246.793 565.909 246.103 564.238 246.61C563.403 246.699 562.625 246.557 561.906 246.186C560.506 244.451 559.877 243.883 559.784 241.204C559.686 238.362 561.333 237.358 561.964 235.083C564.018 233.684 563.971 232.309 561.824 230.961C560.941 229.518 560.46 227.953 560.38 226.264C559.972 219.995 565.694 217.468 570.058 214.152C562.244 213.293 562.542 204.128 567.949 200.122C573.553 195.968 585.419 197.669 592.195 198.606C593.604 198.799 597.411 200.617 598.836 199.458C599.71 198.748 599.093 192.742 599.133 191.683C599.225 189.277 599.81 186.408 599.426 184.014C598.624 179.002 600.324 181.526 596.716 181.387C588.129 181.054 577.194 188.55 569.639 192.084C561.183 196.04 555.749 196.648 555.661 206.457C555.576 215.744 552.972 224.998 551.835 234.138C551.338 238.129 550.984 258.866 543.678 251.213C540.846 248.245 542.66 243.681 542.871 240.02C543.157 234.982 542.987 229.867 543.16 224.816ZM70.7674 535.71C74.9477 536.452 81.7565 534.052 86.3167 533.8C94.2913 533.362 102.504 532.602 110.316 530.943C116.428 529.644 123.393 528.501 126.689 522.585C129.636 517.298 130.677 510.676 132.264 504.906C133.107 501.842 135.281 497.4 135.281 494.23C135.281 490.11 134.725 490.922 130.428 488.666C124.989 485.813 119.697 481.836 113.83 480.217C112.055 479.87 110.279 479.531 108.502 479.198C106.204 477.864 104.906 478.52 104.605 481.162C102.361 483.528 101.046 487.889 99.1633 490.656C94.871 496.965 89.7739 501.264 83.1147 504.902C71.1321 511.447 59.9669 516.498 47.1328 520.778C40.0599 523.136 33.5378 526.445 26.6247 529.045C21.0861 531.128 13.4422 531.761 9.18765 536.398C4.38729 541.629 11.7658 543.531 15.8669 547.067C19.2273 549.965 19.2927 550.63 23.8893 549.223C27.3138 548.175 30.3497 546.171 33.6384 544.812C44.903 540.159 58.5369 537.063 70.7674 535.71ZM328.21 618.681C324.012 617.772 319.813 616.865 315.615 615.958C319.744 623.666 328.428 634.944 322.195 643.864C319.866 647.197 315.991 648.148 312.53 649.838C308.341 651.885 304.473 654.506 300.513 656.945C284.183 667 267.587 677.196 250.38 685.824C255.767 687.563 264.05 688.766 269.597 687.251C276.057 685.486 282.039 681.435 288.671 679.664C300.57 676.489 313.094 673.784 325.183 672.155C335.064 670.824 359.798 673.832 358.597 658.971C357.456 644.863 349.029 631.402 346.521 617.454C340.367 618.821 334.497 618.582 328.21 618.681ZM578.449 392.861C583.234 369.375 586.093 345.49 591.737 322.173C594.553 310.541 596.537 298.749 599.288 287.114C600.568 281.7 601.535 276.234 602.781 270.831C604.044 265.361 606.76 260.313 607.382 254.658C602.809 255.789 601.751 266.263 600.365 270.203C597.823 277.431 595.049 284.377 591.782 291.297C586.588 302.297 581.077 312.91 575.218 323.575C569.04 334.823 562.515 345.641 554.797 355.913C552.261 359.289 548.82 361.934 547.185 365.636C544.615 371.46 543.535 378.402 541.08 384.463C542.809 385.341 547.275 385.559 549.395 385.978C553.339 386.756 556.102 387.448 559.89 389.323C566.563 392.627 572.169 396.543 576.628 402.487C577.748 399.436 578.04 396.09 578.449 392.861ZM392.452 572.053C392.373 549.434 392.052 526.622 392.423 504.171C392.525 497.937 393.033 491.211 393.937 485.024C394.504 481.136 397.845 472.87 395.649 471.006C393.773 469.412 383.867 470.462 381.436 470.405C376.722 470.296 372.022 470.086 367.298 469.731C367.298 478.114 370.573 487.633 372.095 495.925C373.513 503.66 374.679 511.438 375.85 519.209C378.384 536.036 379.105 553.095 381.857 569.967C384.349 585.265 387.638 600.499 389.451 615.795C390.446 624.191 392.46 632.113 394.024 640.504C394.842 644.88 397.821 662.903 401.574 664.675C402.367 658.21 399.126 650.403 398.545 643.866C397.947 637.116 397.483 630.321 396.388 623.536C395.103 615.571 394.454 607.409 393.961 599.345C393.661 594.411 393.569 589.492 393.142 584.561C392.834 580.983 391.48 575.561 392.452 572.053ZM510.327 269.592C510.483 267.129 504.108 267.228 502.921 264.397C500.512 258.648 506.002 259.683 509.377 259.088C508.174 255.891 485.638 257.055 490.889 248.425C494.531 242.437 508.342 251.602 512.034 245.912C514.459 242.175 507.857 241.66 505.239 241.286C501.298 240.721 492.016 242.545 492.321 237.433C492.706 231.009 510.752 226.575 515.814 224.688C515.253 220.289 493.534 226.542 490.391 228.325C483.277 232.361 477.826 239.602 476.782 247.651C475.566 257.015 480.315 264.39 489.668 266.688C493.568 267.646 496.45 267.752 500.058 269.193C502.433 270.14 510.117 272.502 511.744 270.112C511.271 269.939 510.8 269.765 510.327 269.592ZM637.828 211.347C638.187 207.348 641.554 199.82 637.676 197.193C632.248 193.516 629.999 199.575 628.769 203.214C627.265 207.658 620.943 218.537 626.471 221.306C627.757 221.95 633.851 221.2 634.926 220.776C637.921 221.556 638.887 220.435 637.828 217.409V211.347ZM505.369 534.283C505.029 523.353 509.922 510.214 512.695 499.509C515.839 487.38 517.495 475.01 520.826 463.014C517.121 463.461 513.382 463.825 509.721 464.568C504.727 465.583 504.637 465.423 504.996 470.322C505.532 477.679 504.83 484.892 504.45 492.247C503.689 506.972 505.543 521.939 504.31 536.571C505.41 536.85 505.762 536.087 505.369 534.283ZM643.645 247.842C655.644 249.678 667.144 253.483 678.063 258.594C684.082 261.411 690.711 264.439 697.437 265.564C704.909 266.815 712.834 266.228 720.465 266.71C723.155 266.88 730.227 268.187 732.85 266.605C735.448 265.037 735.245 262.381 735.367 259.214C735.682 251.069 731.995 243.094 728.68 235.786C725.836 229.516 723.686 224.729 719.273 219.336C713.606 212.409 708.671 204.934 703.364 197.704C699.362 192.255 695.319 186.883 691.24 181.44C688.323 177.542 688.461 176.201 684.063 176.637C679.733 177.067 675.373 179.627 671.294 180.983C665.24 182.997 657.909 184.102 652.388 187.322C648.819 189.404 648.66 189.787 648.701 193.42C648.74 196.804 649.832 200.932 651.855 203.579C656.061 209.075 663.032 211.984 669.014 214.726C672.475 216.311 675.466 218.56 678.547 220.748C681.866 223.106 688.563 224.495 691.103 227.183C698.498 235.011 685.036 233.464 681.275 233.228C673.158 232.717 665.085 232.795 656.908 232.789C647.983 232.783 639.129 232.368 630.33 232.658C625.176 232.828 619.263 230.214 615.924 225.857C614.308 223.746 613.677 221.751 611.563 219.561C608.793 216.694 606.383 213.673 603.013 211.454C597.498 207.823 587.477 205.769 580.913 207.124C583.263 207.452 594.319 211.216 589.452 215.947C588.859 216.523 581.748 216.9 580.202 217.61C577.413 218.891 573.896 220.753 572.26 223.458C577.024 222.66 594.692 221.736 585.679 230.877C583.467 233.121 577.114 235.36 582.52 237.746C583.761 238.294 586.246 237.518 587.845 238.012C590.22 238.748 592.162 240.715 594.388 241.764C600.701 244.742 609.403 246.578 615.991 245.926C625.102 245.022 634.596 246.649 643.645 247.842ZM402.045 523.267C402.356 536.398 401.882 549.606 402.162 562.798C402.461 576.885 404.269 590.691 405.13 604.637C405.904 617.135 407.591 629.396 408.962 641.835C409.751 649 410.66 655.851 411.872 662.962C413.008 669.616 413.202 675.479 405.247 677.268C390.039 680.69 387.676 658.811 384.736 649.592C380.349 635.834 377.535 621.39 375.361 607.128C371.314 580.566 365.932 554.373 363.832 527.586C362.539 511.091 360.664 494.765 359.6 478.285C359.392 475.055 360.215 470.079 357.379 468.641C355.673 467.778 350.975 467.77 348.822 467.144C342.824 465.399 337.29 462.83 331.437 460.163C335.591 481.884 336.963 503.497 340.079 525.408C341.732 537.034 344.896 549.081 347.638 560.525C350.479 572.382 351.11 585.15 354.387 596.749C355.831 601.862 357.054 603.945 354.958 609.192C352.388 615.634 354.093 617.175 357.316 623.501C363.245 635.14 367.771 648.875 366.766 661.996C365.946 672.712 357.85 678.321 347.82 681.213C335.274 684.828 322.137 684.401 309.515 688.507C298.519 692.083 287.346 694.726 276.667 699.448C272.361 701.351 268.27 703.61 263.489 703.96C256.931 704.436 252.51 700.631 246.316 699.837C242.445 699.343 236.777 701.19 234.547 697.132C232.779 693.915 234.78 686.895 236.999 684.305C243.233 677.028 255.718 670.687 264.125 666.392C273.815 661.443 283.191 655.248 292.169 648.86C297.611 644.987 303.161 641.271 308.598 637.391C312.195 634.823 313.562 634.807 313.195 630.727C312.902 627.474 311.436 624.318 311.179 620.987C310.983 618.435 311.877 614.956 310.671 613.291C309.784 612.062 306.454 611.196 305.145 610.266C300.357 606.872 299.269 602.673 297.095 597.51C292.156 585.783 286.482 574.386 281.713 562.565C271.473 537.185 265.225 510.497 256.736 484.598C248.064 458.139 240.309 430.363 235.533 402.912C229.142 404.856 223.11 413.463 218.02 417.721C211.144 423.476 204.098 429.041 197.355 434.954C186.302 444.646 175.11 454.072 165.976 465.68C161.576 471.27 157.972 477.287 153.988 483.16C151.687 486.553 149.541 490.394 147.049 493.622C146.649 494.14 146.637 495.204 146.206 495.645C145.257 496.614 143.444 495.323 142.836 495.962C139.08 499.889 139.129 511.04 137.959 516.222C136.346 523.364 134.535 531.575 128.959 536.497C120.346 544.099 104.46 545.277 93.5593 545.672C79.5695 546.178 65.9984 550.077 52.7254 554.264C46.5341 556.216 40.5051 558.501 34.2911 560.396C30.717 561.489 26.6397 563.665 22.8228 563.246C18.2199 562.742 14.5854 558.869 11.2137 555.99C5.81973 551.385 0.825688 546.846 0.999622 539.29C1.19417 531.292 5.5267 525.256 12.3518 521.283C25.5469 513.602 40.3051 508.679 54.5276 503.371C59.9782 501.336 64.644 499.084 69.8556 496.345C77.219 492.473 85.6954 489.313 92.2288 484.201C94.1555 482.692 101.235 478.071 101.838 475.688C101.918 475.377 100.148 471.738 100.141 471.161C100.123 469.676 101.002 468.068 101.543 466.797C104.946 458.797 110.654 451.093 115.018 443.549C123.01 429.73 131.033 415.839 140.299 402.842C158.776 376.931 179.532 351.561 201.934 328.943C212.855 317.916 222.293 305.409 233.367 294.535C237.755 290.228 242.387 286.72 247.793 283.924C253.82 280.808 260.585 280.197 267.493 279.245C284.233 276.941 298.213 281.893 313.93 286.202C328.787 290.275 343.661 293.711 358.602 297.954C375.01 302.613 391.25 307.082 407.606 312.16C416.346 314.873 425.336 316.538 434.117 319.142C438.345 320.394 454.33 328.244 457.855 325.665C446.75 320.454 435.374 315.705 423.493 312.56C419.994 311.634 417.759 312.659 417.889 308.641C417.96 306.45 420.423 303.492 421.31 301.688C423.432 297.369 425.836 293.149 427.913 288.818C420.381 290.957 400.136 298.359 394.46 290.707C388.521 282.697 393.48 266.994 397.202 259.152C406.92 238.681 423.448 221.598 439.551 206.166C443.035 202.83 450.544 198.473 452.401 194.223C452.965 192.931 451.737 191.033 453.011 189.354C453.768 188.356 456.81 187.674 458.026 186.598C462.454 182.678 465.987 174.43 469.047 169.29C472.251 163.909 475.139 158.081 479.165 153.252C485.752 145.356 492.552 136.986 503.218 135.139C508.448 134.234 514.004 134.717 519.017 132.91C525.08 130.725 530.841 127.283 536.963 125.02C535.444 121.897 534.213 116.932 531.266 116.591C528.429 116.262 524.268 118.701 521.021 118.683C516.278 118.657 512.23 117.898 507.653 116.995C502.587 115.993 500.919 116.175 499.072 110.68C497.136 104.924 497.624 98.238 497.64 92.2591C497.647 89.3375 498.227 85.7106 497.978 82.8431C497.605 78.5223 496.765 78.3563 493.378 75.6082C489.146 72.175 483.929 67.6316 489.113 61.6665C491.914 58.4432 497.67 60.9499 500.151 57.4865C502.678 53.959 502.556 45.0974 503.326 40.9538C495.536 44.7831 498.392 30.468 498.391 27.0234C498.39 22.0112 495.03 12.9975 499.866 8.82752C502.113 6.89152 503.782 8.49312 506.352 7.38055C509.283 6.11084 511.129 2.78067 514.248 1.48958C520.447 -1.0775 526.777 2.01381 533.142 1.50341C540.442 0.918838 547.613 -0.210076 554.954 0.961581C558.432 1.51472 559.896 2.83598 562.839 4.3169C565.669 5.74124 568.54 6.13095 571.614 7.04741C574.349 7.8633 576.747 8.27564 578.595 10.6592C580.056 12.5449 579.461 15.7167 580.936 17.3422C582.391 18.9438 585.27 18.7112 587.004 20.6132C588.67 22.4386 589.666 25.4558 590.531 27.7274C591.7 30.7873 591.837 31.9363 593.896 34.3852C595.691 36.5224 598.275 38.2409 599.773 40.6785C603.302 46.4249 603.393 54.7346 602.266 61.1988C601.883 63.4001 598.693 69.0899 599.192 70.9631C599.667 72.7457 602.659 72.2768 604.014 73.4044C605.185 74.3787 606.215 78.7196 607.138 78.9849C609.132 79.5569 611.592 75.6183 613.104 75.0274C615.73 74.0003 616.829 72.9468 618.284 76.8176C619.362 79.6902 617.86 83.5886 617.069 86.3304C616.063 89.8202 614.951 94.0228 612.285 96.6616C609.151 99.7642 606.642 98.0683 603.184 99.7391C598.001 102.243 599.53 110.073 593.153 112.31C587.076 114.443 580.381 107.734 575.784 104.651C576.736 112.137 580.32 119.35 578.6 127.023C592.577 121.547 606.401 113.775 621.633 112.063C629.4 111.189 637.247 110.154 644.579 113.379C653.161 117.153 658.419 125.478 664.228 132.395C675.145 145.395 686.347 158.03 696.825 171.449C706.436 183.758 714.539 198.02 725.118 209.545C735.845 221.233 743.94 240.196 742.765 256.38C742.66 257.841 741.528 261.16 741.705 262.735C741.844 263.942 742.94 265.472 742.923 266.445C742.863 269.72 741.781 271.606 738.659 273.422C733.248 276.574 725.184 278.169 719.068 278.951C710.942 279.991 700.991 280.103 692.861 278.993C684.477 277.846 677.107 273.153 669.397 270.317C662.633 267.828 655.841 266.274 648.734 264.686C644.814 263.81 640.474 261.385 638.052 263.732C635.827 265.889 635.365 276.957 634.847 279.9C629.224 311.799 622.542 342.617 616.624 374.353C609.917 410.325 605.331 446.283 600.666 482.56C596.427 515.537 595.041 548.886 594.092 581.832C593.64 597.548 593.574 613.095 593.67 628.824C593.724 637.632 598.127 667.032 585.07 668.157C577.397 668.821 571.259 657.82 569.203 651.821C566.114 642.807 564.505 633.101 564.012 623.632C563.016 604.463 561.71 585.28 560.936 566.104C560.099 545.328 561.164 524.169 562.872 503.462C564.591 482.616 568.922 462.074 570.25 441.197C566.265 446.884 564.99 447.953 558.352 450.429C551.406 453.023 544.724 456.09 537.715 458.508C535.331 459.33 531.61 459.845 529.655 461.191C526.048 463.676 528.418 460.857 527.266 465.692C526.036 470.858 525.804 477.059 525.478 482.367C523.942 507.277 517.041 532.01 513.858 556.788C513.09 562.771 514.187 588.168 503.89 580.164C495.961 574 496.118 554.639 494.99 545.57C493.489 533.481 494.325 521.052 494.563 508.89C494.833 495.039 495.066 480.511 498.371 466.987C492.457 465.975 484.232 468.732 478.28 469.196C473.126 469.597 467.99 469.852 462.865 470.134C450.644 470.805 438.055 471.34 425.627 471.1C423.365 471.056 408.584 468.987 406.695 470.655C406.081 471.197 405.894 478.649 405.779 479.56C405.344 482.984 404.754 486.405 404.314 489.81C402.91 500.696 401.643 512.385 402.045 523.267Z" fill="black"/>
<path fill-rule="evenodd" clip-rule="evenodd" d="M621.546 626.718C630.874 630.363 640.773 631.686 650.179 635.007C658.588 637.976 666.398 641.967 674.678 644.984C675.162 641.143 675.42 634.639 674.001 631.019C671.993 625.892 666.708 625.767 661.504 623.941C648.838 619.497 635.515 618.561 622.941 613.369C625.094 617.513 624.133 623 621.546 626.718ZM782.557 613.313C762.412 613.904 743.161 618.592 723.308 621.491C713.647 622.901 703.977 624.16 694.307 625.476C690.586 625.982 683.804 625.386 681.099 628.607C678.857 631.276 681.314 640.384 680.318 644.295C684.39 644.596 691.619 640.792 696.038 640.162C702.92 639.184 709.711 637.813 716.664 637.377C727.676 636.683 738.495 636.093 749.488 634.867C760.667 633.621 771.485 631.305 782.753 630.459C788.23 630.047 790.434 631.074 790.756 625.291C790.883 623.03 791.193 619.246 790.559 617.016C791.572 614.275 790.674 612.945 787.862 613.023C786.077 612.822 784.309 612.919 782.557 613.313ZM743.595 594.858C749.043 594.347 754.513 593.614 759.974 593.307C761.082 593.244 766.699 593.583 767.616 592.553C768.915 591.097 767.468 585.769 767.23 584.121C766.42 578.516 765.525 575.256 759.411 575.244C754.251 575.231 748.908 576.323 743.768 576.826C720.435 579.113 697.22 580.079 674.144 584.421C675.549 590.403 677.143 596.574 675.463 602.691C686.533 603.262 698.686 601.132 709.505 598.947C720.562 596.714 732.294 595.605 743.595 594.858ZM706.665 538.54C698.328 538.577 689.517 542.249 681.291 541.431C681.168 542.961 683.801 541.691 684.528 543.123C686.081 543.127 686.622 543.633 686.148 544.646C686.177 545.336 685.824 545.741 685.088 545.858C684.725 545.89 684.362 545.921 684.001 545.952C682.41 546.004 682.149 547.076 683.22 549.173C682.76 551.771 683.45 555.071 683.55 557.678C698.333 555.667 712.695 553.574 727.583 552.676C734.611 552.253 741.634 552.254 748.654 551.676C756.377 551.039 764.808 552.404 772.358 550.958C776.395 550.184 775.972 550.238 775.678 544.989C775.498 541.8 775.565 538.014 772.969 535.688C768.632 531.803 758.758 534.048 753.573 534.186C737.956 534.598 722.074 536.049 706.665 538.54ZM715.198 613.501C737.531 611.473 759.696 607.03 782.155 607.03C780.567 605.444 777.108 605.035 775.132 604.169C772.878 603.183 770.751 601.082 768.549 600.219C764.13 598.489 759.633 600.893 755.094 601.932C744.145 604.439 732.911 604.524 721.944 606.984C710.607 609.525 699.122 611.869 687.575 613.161C682.077 613.776 676.178 615.024 670.745 613.571C670.305 613.256 669.861 612.94 669.421 612.626C668.946 610.604 667.628 610.064 665.466 611.006C662.72 610.483 659.224 611.158 656.459 611.228C656.347 612.331 666.56 615.794 668.507 616.652C673.199 618.718 676.38 620.23 681.391 619.345C692.674 617.352 703.772 614.973 715.198 613.501ZM636.637 548.208C637.51 551.61 641.175 550.062 644.33 550.437C648.565 550.939 652.778 552.4 656.88 553.501C664.329 555.503 671.78 557.477 679.197 559.593C678.905 556.597 679.568 549.778 677.985 547.12C676.324 544.334 668.448 543.113 664.781 542.263C655.536 540.124 645.662 541.341 636.271 541.791C636.437 543.928 636.56 546.065 636.637 548.208ZM725.434 569.493C734.205 568.75 742.986 568.172 751.782 567.863C761.839 567.511 754.529 565.904 754.317 559.771C741.099 561.879 727.765 562.295 714.588 564.097C703.672 565.592 690.667 569.494 679.533 567.398C674.281 566.41 668.919 566.029 663.332 565.47C658.061 564.943 653.088 562.488 647.882 561.878C642.037 561.193 636.066 564.478 630.252 565.346C627.788 565.714 627.215 567.385 626.051 564.419C624.845 561.342 628.301 558.828 629.662 556.988C631.251 554.839 630.591 558.328 631.474 554.972C631.721 554.032 631.051 551.669 630.928 550.656C630.616 548.095 629.811 545.316 629.686 542.76C629.57 540.412 629.55 536.829 632.099 535.458C633.654 534.622 634.757 535.841 636.113 535.605C646.698 533.764 659.148 533.613 669.883 535.39C681.52 537.315 691.536 532.218 703.006 530.151C716.462 527.726 730.058 527.363 743.63 526.338C755.235 525.463 776.437 520.921 780.858 535.743C782.11 539.943 783.934 551.505 780.566 555.078C776.146 559.771 765.913 558.273 760.198 559.493C761.053 561.924 763.598 563.578 762.718 566.474C770.726 566.852 772.142 574.417 773.397 581.479C774.695 588.786 772.163 591.69 779.146 595.495C788.878 600.798 799.188 606.153 798.997 618.782C798.902 625.132 798.191 634.708 791.672 638.002C785.294 641.225 774.908 640.68 767.879 641.85C754.267 644.117 740.607 646.776 726.912 648.137C712.33 649.586 697.505 650.776 682.898 651.423C674.94 651.778 668.065 652.98 660.379 650.302C652.822 647.669 645.43 645.746 637.633 643.791C629.936 641.863 606.373 639.266 613.239 626.102C614.337 623.996 618.093 622.321 618.699 620.33C619.677 617.117 616.373 614.61 616.511 611.707C616.763 606.395 622.756 605.729 626.894 605.729C619.801 601.293 629.299 596.041 629.243 592.275C629.143 585.64 620.891 581.333 620.424 575.771C619.289 562.235 662.228 576.329 668.837 579.257C663.75 586.8 640.15 580.273 633.121 579.129C634.08 581.648 634.997 583.912 635.274 586.491C635.499 588.592 634.696 590.994 635.431 593.109C636.591 596.453 636.551 595.813 640.658 596.725C643.696 597.399 646.7 598.178 649.729 598.893C654.38 599.99 661.697 602.935 666.306 602.774C670.349 602.633 669.55 603.887 670.291 599.397C670.69 596.984 670.01 594.419 669.603 592.055C668.754 587.101 667.512 582.412 671.839 578.858C675.964 575.468 684.66 573.854 689.72 572.659C700.95 570.006 713.912 569.356 725.434 569.493Z" fill="black"/>
<path fill-rule="evenodd" clip-rule="evenodd" d="M778.875 484.936C766.678 482.892 754.286 482.389 741.946 483.008C742.614 486.062 743.283 489.115 743.953 492.167C755.514 489.19 767.242 487.445 778.875 484.936ZM679.698 508.624C674.807 508.266 678.21 510.453 679.418 513.655C680.902 517.588 680.584 522.561 680.925 526.701C695.236 521.244 711.887 518.05 727.103 516.213C734.319 515.343 741.64 515.093 748.896 514.721C751.041 514.611 758.787 515.509 760.356 514.066C761.521 512.993 760.704 507.073 759.584 505.766C753.494 498.667 729.952 504.797 721.435 505.433C707.47 506.476 693.76 508.971 679.698 508.624ZM700.024 489.6C712.696 490.817 724.932 490.701 737.605 492.6C736.644 484.545 737.792 482.489 728.654 482.061C720.511 481.681 712.394 481.373 704.288 481.377C686.062 481.387 667.878 481.039 649.632 481.039V489.225C666.507 487.497 683.115 490.618 700.024 489.6ZM639.089 519.703C647.086 519.669 654.645 522.686 662.643 523.468C667.43 523.936 665.926 524.53 669.247 526.934C674.419 530.678 675.909 528.683 675.26 523.596C673.063 506.386 651.274 510.245 638.718 509.289C639.543 513.393 637.646 516.873 634.852 519.703H639.089ZM725.531 497.608C714.028 497.794 702.512 498.448 691.089 498.209C685.976 498.102 679.352 497.089 674.341 497.961C670.67 498.599 667.6 500.469 663.574 501.164C669.488 504.349 672.486 502.197 678.704 501.472C684.916 500.749 691.22 500.763 697.458 500.385C707.701 499.765 718.62 497.311 728.712 497.979C728.896 496.557 727.837 496.433 725.531 497.608ZM634.295 534.88C629.017 534.868 636.279 528.866 637.232 528.271C631.389 528.271 629.974 524.766 631.667 519.136C633.262 513.833 634.442 515.456 630.429 511.04C627.408 507.715 626.951 505.265 630.512 501.547C634.136 497.765 641.476 498.835 644.687 495.713C650.154 490.399 643.099 479.816 650.674 475.745C655.795 472.995 664.049 473.335 669.702 472.754C675.166 472.192 680.822 472.084 686.323 472.009C698.313 471.845 710.768 473.856 722.705 474.963C727.058 475.365 731.95 477.124 736.238 477.127C740.611 477.132 745.191 476.157 749.706 476.269C754.955 476.402 760.011 476.015 765.424 476.876C769.571 477.537 779.254 477.884 782.424 480.967C792.986 491.241 767.939 495.959 763.629 497.113C768.015 501.918 767.833 508.27 767.172 514.319C769.26 514.319 772.859 513.41 773.939 515.752C775.282 518.659 770.314 519.415 769.139 519.754C762.381 521.706 754.472 521.171 747.508 521.88C733.585 523.297 719.83 524.114 706.052 526.752C699.337 528.037 692.662 529.628 685.952 530.879C684.794 531.096 683.629 531.269 682.459 531.4C680.663 531.247 680.083 532.373 680.716 534.786C678.853 535.696 671.909 533.429 669.762 533.082C657.47 531.088 646.473 531.916 634.295 534.88Z" fill="black"/>
<path fill-rule="evenodd" clip-rule="evenodd" d="M882.514 654.245C874.586 660.484 867.216 666.372 858.63 671.793C864.699 671.604 884.884 661.925 882.514 654.245ZM879.418 644.076C875.091 640.358 870.792 640.738 865.436 639.611C860.504 638.573 855.711 636.786 850.789 635.596C846.926 634.663 843.103 633.401 839.254 632.519C833.819 631.273 833.283 632.645 828.284 635.492C810.558 645.595 790.721 652.544 772.05 660.744C777.532 665.57 789.864 665.778 796.715 667.317C801.718 668.439 806.478 669.975 811.269 671.752C815.731 673.409 822.919 677.218 827.624 677.345C831.595 677.452 834.824 673.544 838.244 671.439C842.741 668.668 847.219 665.947 851.752 663.246C861.345 657.53 870.314 650.526 879.418 644.076ZM799.308 684.997C797.261 683.028 791.102 683.114 788.536 682.513C783.482 681.332 778.502 680.105 773.38 679.218C765.069 677.781 751.94 677.137 751.037 666.354C750.285 657.393 761.112 655.267 767.445 652.231C776.968 647.664 786.684 643.45 796.449 639.422C805.604 635.648 814.894 632.455 824.215 629.193C826.033 628.557 827.509 628.645 828.993 627.189C830.164 626.041 829.803 623.812 831.086 622.612C834.024 619.864 837.837 621.31 841.368 622.015C849.387 623.614 857.713 625.714 865.358 628.681C873.303 631.764 880.409 632.408 882.317 641.415C886.38 639.509 889.435 639.232 888.949 644.832C888.807 646.478 887.612 648.268 887.325 649.965C886.903 652.467 887.642 655.104 887.224 657.613C885.704 666.734 873.406 673.49 865.785 677.072C856.388 681.487 844.263 688.012 833.771 688.874C822.591 689.793 810.407 685.402 799.308 684.997Z" fill="black"/>
<path fill-rule="evenodd" clip-rule="evenodd" d="M657 533.677C653.667 533.698 650.332 533.719 647 533.74C650.326 533.115 653.661 533.108 657 533.677Z" fill="black"/>
<path fill-rule="evenodd" clip-rule="evenodd" d="M462 181C461 182.666 460.001 184.332 459 186C459.341 183.852 460.103 182.011 462 181Z" fill="black"/>
<path fill-rule="evenodd" clip-rule="evenodd" d="M657 581.473C659.004 581.491 661.007 581.508 663 581.527C660.992 581.511 658.997 581.492 657 581.473Z" fill="black"/>
<path fill-rule="evenodd" clip-rule="evenodd" d="M703 472.69C700.665 472.564 698.333 472.437 696 472.311C698.333 472.437 700.665 472.564 703 472.69Z" fill="black"/>
<path fill-rule="evenodd" clip-rule="evenodd" d="M663 533.726C660.999 533.707 658.998 533.689 657 533.67C659.007 533.123 661.008 533.142 663 533.726Z" fill="black"/>
<path fill-rule="evenodd" clip-rule="evenodd" d="M742.585 250C742.529 247.999 742.472 245.998 742.415 244C742.473 246.002 742.529 248 742.585 250Z" fill="black"/>
<path fill-rule="evenodd" clip-rule="evenodd" d="M402.561 552C402.52 550.333 402.48 548.665 402.439 547C402.481 548.669 402.52 550.334 402.561 552Z" fill="black"/>
<path fill-rule="evenodd" clip-rule="evenodd" d="M457 470.497C458.338 470.498 459.673 470.5 461 470.503C459.661 470.503 458.33 470.499 457 470.497Z" fill="black"/>
<path fill-rule="evenodd" clip-rule="evenodd" d="M636 111.319C634.333 111.44 632.666 111.56 631 111.681C632.667 111.56 634.334 111.44 636 111.319Z" fill="black"/>
<path fill-rule="evenodd" clip-rule="evenodd" d="M762 476.52C760 476.507 757.999 476.493 756 476.48C757.999 476.493 760 476.507 762 476.52Z" fill="black"/>
<path fill-rule="evenodd" clip-rule="evenodd" d="M593.574 600C593.524 598.665 593.474 597.328 593.426 596C593.475 597.337 593.524 598.67 593.574 600Z" fill="black"/>
<path fill-rule="evenodd" clip-rule="evenodd" d="M595.554 549C595.518 547.666 595.482 546.331 595.446 545C595.483 546.334 595.519 547.667 595.554 549Z" fill="black"/>
<path fill-rule="evenodd" clip-rule="evenodd" d="M561.428 572C561.476 573.335 561.525 574.671 561.572 576C561.524 574.663 561.476 573.333 561.428 572Z" fill="black"/>
<path fill-rule="evenodd" clip-rule="evenodd" d="M465 469.521C466.004 469.507 467.006 469.494 468 469.48C466.994 469.494 465.997 469.507 465 469.521Z" fill="black"/>
<path fill-rule="evenodd" clip-rule="evenodd" d="M755 521.565C756.003 521.522 757.005 521.478 758 521.435C756.994 521.479 755.996 521.522 755 521.565Z" fill="black"/>
<path fill-rule="evenodd" clip-rule="evenodd" d="M563.415 604C563.472 605.335 563.528 606.671 563.585 608C563.528 606.661 563.472 605.331 563.415 604Z" fill="black"/>
<path fill-rule="evenodd" clip-rule="evenodd" d="M670.601 597C670.534 598.336 670.466 599.671 670.399 601C670.466 599.664 670.534 598.332 670.601 597Z" fill="black"/>
<path fill-rule="evenodd" clip-rule="evenodd" d="M555.345 1.14676C553.932 0.966758 552.518 0.788258 551.105 0.608258C552.506 0.932258 554.041 -0.269242 555.345 1.14676Z" fill="black"/>
<path fill-rule="evenodd" clip-rule="evenodd" d="M494.557 514C494.519 515.335 494.482 516.67 494.443 518C494.48 516.662 494.518 515.331 494.557 514Z" fill="black"/>
<path fill-rule="evenodd" clip-rule="evenodd" d="M408.603 636C408.535 634.666 408.465 633.332 408.397 632C408.466 633.334 408.535 634.667 408.603 636Z" fill="black"/>
<path fill-rule="evenodd" clip-rule="evenodd" d="M732 523.531C733.005 523.51 734.007 523.488 735 523.469C733.993 523.491 732.997 523.511 732 523.531Z" fill="black"/>
<path fill-rule="evenodd" clip-rule="evenodd" d="M392.49 281C392.498 282.336 392.504 283.671 392.51 285C392.502 283.663 392.497 282.332 392.49 281Z" fill="black"/>
<path fill-rule="evenodd" clip-rule="evenodd" d="M371.508 581C371.504 582.335 371.499 583.672 371.492 585C371.496 583.663 371.502 582.331 371.508 581Z" fill="black"/>
<path fill-rule="evenodd" clip-rule="evenodd" d="M620.743 573C620.707 574.335 620.672 575.671 620.634 577C620.086 575.629 620.148 574.3 620.743 573Z" fill="black"/>
<path fill-rule="evenodd" clip-rule="evenodd" d="M594.516 567C594.505 565.665 594.495 564.331 594.484 563C594.495 564.338 594.505 565.668 594.516 567Z" fill="black"/>
<path fill-rule="evenodd" clip-rule="evenodd" d="M799 685.459C800.004 685.486 801.008 685.514 802 685.542C800.992 685.515 799.996 685.487 799 685.459Z" fill="black"/>
<path fill-rule="evenodd" clip-rule="evenodd" d="M763 558.517C763.668 558.505 764.339 558.495 765 558.483C764.327 558.495 763.664 558.505 763 558.517Z" fill="black"/>
<path fill-rule="evenodd" clip-rule="evenodd" d="M738 561.502C738.671 561.5 739.339 561.499 740 561.498C739.329 561.5 738.664 561.501 738 561.502Z" fill="black"/>
<path fill-rule="evenodd" clip-rule="evenodd" d="M348.56 568C348.52 567 348.479 565.998 348.44 565C348.481 566.002 348.521 567.002 348.56 568Z" fill="black"/>
<path fill-rule="evenodd" clip-rule="evenodd" d="M758 567.241C757.131 568.12 756.014 567.601 755 567.657C756 567.518 757.001 567.38 758 567.241Z" fill="black"/>
<path fill-rule="evenodd" clip-rule="evenodd" d="M639 535.247C637.68 535.871 636.345 535.957 635 535.29C636.334 535.276 637.667 535.262 639 535.247Z" fill="black"/>
<path fill-rule="evenodd" clip-rule="evenodd" d="M726 569.517C724.666 569.506 723.332 569.495 722 569.483C723.334 569.495 724.668 569.506 726 569.517Z" fill="black"/>
<path fill-rule="evenodd" clip-rule="evenodd" d="M670 534.681C668.667 534.56 667.332 534.44 666 534.319C667.332 534.44 668.667 534.56 670 534.681Z" fill="black"/>
<path fill-rule="evenodd" clip-rule="evenodd" d="M364.539 530C364.514 531.003 364.488 532.004 364.461 533C364.486 531.996 364.512 530.997 364.539 530Z" fill="black"/>
<path fill-rule="evenodd" clip-rule="evenodd" d="M594.423 584C594.475 582.998 594.526 581.996 594.577 581C594.526 582.004 594.475 583.002 594.423 584Z" fill="black"/>
<path fill-rule="evenodd" clip-rule="evenodd" d="M732 526.332C730.667 526.444 729.333 526.556 728 526.668C729.334 526.556 730.667 526.444 732 526.332Z" fill="black"/>
<path fill-rule="evenodd" clip-rule="evenodd" d="M402.542 523C402.515 521.998 402.486 520.996 402.458 520C402.485 521.005 402.515 522.002 402.542 523Z" fill="black"/>
<path fill-rule="evenodd" clip-rule="evenodd" d="M569.618 446C569.539 447.002 569.46 448.003 569.382 449C569.461 447.998 569.54 447 569.618 446Z" fill="black"/>
<path fill-rule="evenodd" clip-rule="evenodd" d="M752 476.26C750.664 476.952 749.332 476.865 748 476.253C749.333 476.255 750.667 476.258 752 476.26Z" fill="black"/>
<path fill-rule="evenodd" clip-rule="evenodd" d="M593.588 615C593.528 613.998 593.47 612.998 593.411 612C593.47 613.003 593.528 614.001 593.588 615Z" fill="black"/>
<path fill-rule="evenodd" clip-rule="evenodd" d="M593.563 623C593.521 621.999 593.478 620.998 593.437 620C593.48 621.002 593.522 622 593.563 623Z" fill="black"/>
<path fill-rule="evenodd" clip-rule="evenodd" d="M404.479 491C404.494 489.999 404.507 488.996 404.521 488C404.506 489.004 404.493 490.001 404.479 491Z" fill="black"/>
<path fill-rule="evenodd" clip-rule="evenodd" d="M689 650.527C689.669 650.508 690.339 650.49 691 650.473C690.327 650.493 689.664 650.509 689 650.527Z" fill="black"/>
<path fill-rule="evenodd" clip-rule="evenodd" d="M366.581 659C366.527 657.999 366.473 656.998 366.419 656C366.474 657.001 366.527 658.001 366.581 659Z" fill="black"/>
<path fill-rule="evenodd" clip-rule="evenodd" d="M583 667.48C583.67 667.494 584.34 667.506 585 667.521C584.328 667.508 583.664 667.494 583 667.48Z" fill="black"/>
<path fill-rule="evenodd" clip-rule="evenodd" d="M728 475.652C726.667 475.551 725.333 475.45 724 475.349C725.333 475.45 726.667 475.551 728 475.652Z" fill="black"/>
<path fill-rule="evenodd" clip-rule="evenodd" d="M735 476.708L732 476.293L735 476.708Z" fill="black"/>
<path fill-rule="evenodd" clip-rule="evenodd" d="M583.416 582C583.473 578.999 583.528 575.999 583.584 573C583.527 576.001 583.472 579 583.416 582Z" fill="black"/>
<path fill-rule="evenodd" clip-rule="evenodd" d="M505.448 472C505.482 474.335 505.516 476.67 505.552 479C505.518 476.663 505.483 474.331 505.448 472Z" fill="black"/>
<path fill-rule="evenodd" clip-rule="evenodd" d="M333 618.469C331.331 618.489 329.659 618.509 328 618.531C329.674 618.511 331.337 618.49 333 618.469Z" fill="black"/>
<path fill-rule="evenodd" clip-rule="evenodd" d="M470 419.539C468.329 419.513 466.659 419.486 465 419.462C466.675 419.489 468.338 419.514 470 419.539Z" fill="black"/>
<path fill-rule="evenodd" clip-rule="evenodd" d="M427 458.503C428.668 458.502 430.335 458.499 432 458.497C430.333 458.498 428.667 458.501 427 458.503Z" fill="black"/>
<path fill-rule="evenodd" clip-rule="evenodd" d="M449 418.467C447.662 418.489 446.325 418.512 445 418.533C446.342 418.511 447.671 418.489 449 418.467Z" fill="black"/>
<path fill-rule="evenodd" clip-rule="evenodd" d="M341 618.511C339.663 618.504 338.326 618.497 337 618.49C338.342 618.498 339.671 618.504 341 618.511Z" fill="black"/>
<path fill-rule="evenodd" clip-rule="evenodd" d="M521 107.674C522.666 107.558 524.334 107.443 526 107.327C524.333 107.443 522.666 107.558 521 107.674Z" fill="black"/>
<path fill-rule="evenodd" clip-rule="evenodd" d="M543.407 225C543.469 223.333 543.531 221.666 543.593 220C543.53 221.669 543.469 223.334 543.407 225Z" fill="black"/>
<path fill-rule="evenodd" clip-rule="evenodd" d="M503 240.499C501.997 240.499 500.993 240.5 500 240.501C501.007 240.501 502.003 240.5 503 240.499Z" fill="black"/>
<path fill-rule="evenodd" clip-rule="evenodd" d="M418 415.484C416.997 415.495 415.993 415.506 415 415.517C416.007 415.507 417.003 415.496 418 415.484Z" fill="black"/>
<path fill-rule="evenodd" clip-rule="evenodd" d="M395 456.337C396.334 456.445 397.667 456.555 399 456.663C397.666 456.555 396.334 456.445 395 456.337Z" fill="black"/>
<path fill-rule="evenodd" clip-rule="evenodd" d="M392.469 507C392.49 505.665 392.511 504.332 392.531 503C392.51 504.336 392.49 505.668 392.469 507Z" fill="black"/>
<path fill-rule="evenodd" clip-rule="evenodd" d="M507 453.696C508.333 453.565 509.667 453.435 511 453.304C509.666 453.435 508.333 453.565 507 453.696Z" fill="black"/>
<path fill-rule="evenodd" clip-rule="evenodd" d="M598.381 430C598.461 428.666 598.54 427.33 598.619 426C598.54 427.336 598.46 428.668 598.381 430Z" fill="black"/>
<path fill-rule="evenodd" clip-rule="evenodd" d="M616 245.656C617.334 245.552 618.666 245.448 620 245.345C618.666 245.448 617.334 245.552 616 245.656Z" fill="black"/>
<path fill-rule="evenodd" clip-rule="evenodd" d="M480 420.514C478.997 420.504 477.993 420.495 477 420.486C478.007 420.495 479.004 420.504 480 420.514Z" fill="black"/>
<path fill-rule="evenodd" clip-rule="evenodd" d="M392.573 582C392.523 580.998 392.474 579.998 392.426 579C392.474 580.002 392.523 581.001 392.573 582Z" fill="black"/>
<path fill-rule="evenodd" clip-rule="evenodd" d="M504.692 531C506.878 536.42 505.651 532.582 505.707 533.833C503.845 534.083 503.506 533.138 504.692 531Z" fill="black"/>
<path fill-rule="evenodd" clip-rule="evenodd" d="M413 415.555C411.998 415.519 410.993 415.482 410 415.445C411.009 415.481 412.003 415.518 413 415.555Z" fill="black"/>
<path fill-rule="evenodd" clip-rule="evenodd" d="M617.405 314C617.468 312.666 617.533 311.332 617.595 310C617.532 311.335 617.467 312.668 617.405 314Z" fill="black"/>
<path fill-rule="evenodd" clip-rule="evenodd" d="M392.505 572C392.502 570.666 392.498 569.333 392.495 568C392.498 569.337 392.501 570.669 392.505 572Z" fill="black"/>
<path fill-rule="evenodd" clip-rule="evenodd" d="M392.396 542C392.465 540.999 392.535 539.998 392.604 539C392.534 540.002 392.465 541.002 392.396 542Z" fill="black"/>
<path fill-rule="evenodd" clip-rule="evenodd" d="M600.36 411C600.453 409.999 600.547 408.998 600.64 408C600.547 409.002 600.453 410.002 600.36 411Z" fill="black"/>
<path fill-rule="evenodd" clip-rule="evenodd" d="M379.366 545C379.455 546.002 379.545 547.004 379.634 548C379.544 546.999 379.455 546 379.366 545Z" fill="black"/>
<path fill-rule="evenodd" clip-rule="evenodd" d="M377.352 537C377.451 538.001 377.549 539.003 377.648 540C377.549 538.997 377.451 537.998 377.352 537Z" fill="black"/>
<path fill-rule="evenodd" clip-rule="evenodd" d="M577.388 400C577.463 399 577.537 397.999 577.612 397C577.536 398.002 577.462 399.001 577.388 400Z" fill="black"/>
<path fill-rule="evenodd" clip-rule="evenodd" d="M67 535.658C68.3324 535.553 69.6662 535.446 71 535.342C69.6634 535.447 68.331 535.553 67 535.658Z" fill="black"/>
<path fill-rule="evenodd" clip-rule="evenodd" d="M568.558 560C568.519 561.002 568.479 562.006 568.442 563C568.481 561.995 568.52 560.998 568.558 560Z" fill="black"/>
<path fill-rule="evenodd" clip-rule="evenodd" d="M584.389 563C584.463 562 584.536 560.998 584.611 560C584.536 561.002 584.463 562.001 584.389 563Z" fill="black"/>
<path fill-rule="evenodd" clip-rule="evenodd" d="M578.342 396C578.447 394.999 578.554 393.999 578.658 393C578.553 394.002 578.447 395.001 578.342 396Z" fill="black"/>
<path fill-rule="evenodd" clip-rule="evenodd" d="M75 534.697C76.3338 534.566 77.6676 534.434 79 534.303C77.6676 534.434 76.3324 534.566 75 534.697Z" fill="black"/>
<path fill-rule="evenodd" clip-rule="evenodd" d="M499 419.489C498.331 419.496 497.66 419.504 497 419.511C497.673 419.504 498.336 419.496 499 419.489Z" fill="black"/>
<path fill-rule="evenodd" clip-rule="evenodd" d="M392.505 533C392.502 531.998 392.498 530.997 392.495 530C392.498 531.003 392.502 532 392.505 533Z" fill="black"/>
<path fill-rule="evenodd" clip-rule="evenodd" d="M586.578 531C586.223 529.966 586.049 528.947 586.734 528C586.682 529.002 586.63 530.001 586.578 531Z" fill="black"/>
<path fill-rule="evenodd" clip-rule="evenodd" d="M569.543 512C569.515 513.001 569.484 514.003 569.457 515C569.486 513.997 569.515 512.998 569.543 512Z" fill="black"/>
<path fill-rule="evenodd" clip-rule="evenodd" d="M570.407 611C570.469 612 570.531 613.003 570.593 614C570.531 612.998 570.469 611.998 570.407 611Z" fill="black"/>
<path fill-rule="evenodd" clip-rule="evenodd" d="M644 247.287C645.001 247.43 646.001 247.573 647 247.714C645.999 247.571 645 247.429 644 247.287Z" fill="black"/>
<path fill-rule="evenodd" clip-rule="evenodd" d="M640 247.38C641.342 247.461 642.816 246.816 644 247.761L640 247.38Z" fill="black"/>
<path fill-rule="evenodd" clip-rule="evenodd" d="M469 458.51C470.333 458.504 471.668 458.497 473 458.49C471.667 458.497 470.333 458.504 469 458.51Z" fill="black"/>
<path fill-rule="evenodd" clip-rule="evenodd" d="M499 246.327L503 246.674C501.665 246.558 500.334 246.443 499 246.327Z" fill="black"/>
<path fill-rule="evenodd" clip-rule="evenodd" d="M433 458.239C434.335 458.245 435.667 458.251 437 458.257C435.661 458.901 434.328 458.964 433 458.239Z" fill="black"/>
<path fill-rule="evenodd" clip-rule="evenodd" d="M396.615 626C396.539 624.997 396.462 623.997 396.385 623C396.462 624.003 396.539 625.001 396.615 626Z" fill="black"/>
<path fill-rule="evenodd" clip-rule="evenodd" d="M542.478 248C542.493 246.998 542.507 245.998 542.522 245C542.507 246.003 542.493 247.002 542.478 248Z" fill="black"/>
<path fill-rule="evenodd" clip-rule="evenodd" d="M458 458.661C459.334 458.554 460.667 458.447 462 458.339C460.666 458.447 459.334 458.554 458 458.661Z" fill="black"/>
<path fill-rule="evenodd" clip-rule="evenodd" d="M571.467 635C571.489 636.001 571.511 637.003 571.533 638C571.511 636.996 571.489 635.999 571.467 635Z" fill="black"/>
<path fill-rule="evenodd" clip-rule="evenodd" d="M575 222.691C576.333 222.564 577.667 222.437 579 222.31C577.667 222.437 576.333 222.564 575 222.691Z" fill="black"/>
<path fill-rule="evenodd" clip-rule="evenodd" d="M592.363 478C592.455 476.999 592.547 475.998 592.637 475C592.546 476.002 592.454 477 592.363 478Z" fill="black"/>
<path fill-rule="evenodd" clip-rule="evenodd" d="M638.385 211C638.462 209.998 638.538 208.998 638.614 208C638.538 209.002 638.461 210.001 638.385 211Z" fill="black"/>
<path fill-rule="evenodd" clip-rule="evenodd" d="M543.471 125C543.49 126.001 543.508 127.003 543.529 128C543.51 126.997 543.491 125.998 543.471 125Z" fill="black"/>
<path fill-rule="evenodd" clip-rule="evenodd" d="M508 106.333C509.333 106.444 510.668 106.556 512 106.666C510.667 106.555 509.333 106.444 508 106.333Z" fill="black"/>
<path fill-rule="evenodd" clip-rule="evenodd" d="M308 674.696C309.334 674.565 310.666 674.435 312 674.304C310.666 674.435 309.334 674.566 308 674.696Z" fill="black"/>
<path fill-rule="evenodd" clip-rule="evenodd" d="M510 96.501C509.331 96.5 508.66 96.499 508 96.499C508.672 96.501 509.336 96.501 510 96.501Z" fill="black"/>
<path fill-rule="evenodd" clip-rule="evenodd" d="M264 687.72C265.335 687.032 266.667 687.228 268 687.725C266.667 687.723 265.332 687.722 264 687.72Z" fill="black"/>
<path fill-rule="evenodd" clip-rule="evenodd" d="M783 629.679C785.334 629.559 787.667 629.44 790 629.321C787.667 629.44 785.334 629.56 783 629.679Z" fill="black"/>
<path fill-rule="evenodd" clip-rule="evenodd" d="M783 612.454C781.662 612.484 780.326 612.515 779 612.546C780.34 612.516 781.67 612.484 783 612.454Z" fill="black"/>
<path fill-rule="evenodd" clip-rule="evenodd" d="M763 592.621C764.667 592.494 766.333 592.367 768 592.24C766.445 593.217 764.667 592.494 763 592.621Z" fill="black"/>
<path fill-rule="evenodd" clip-rule="evenodd" d="M744 594.681C745.667 594.56 747.333 594.44 749 594.319C747.334 594.44 745.667 594.56 744 594.681Z" fill="black"/>
<path fill-rule="evenodd" clip-rule="evenodd" d="M716 612.656C717.333 612.552 718.667 612.448 720 612.344C718.667 612.448 717.333 612.552 716 612.656Z" fill="black"/>
<path fill-rule="evenodd" clip-rule="evenodd" d="M723 612.658C724.333 612.553 725.667 612.447 727 612.342C725.667 612.447 724.333 612.552 723 612.658Z" fill="black"/>
<path fill-rule="evenodd" clip-rule="evenodd" d="M728 611.677C729.333 611.559 730.666 611.442 732 611.323C730.667 611.441 729.334 611.559 728 611.677Z" fill="black"/>
<path fill-rule="evenodd" clip-rule="evenodd" d="M735 577.491C733.997 577.498 732.994 577.505 732 577.509C733.007 577.501 734.004 577.496 735 577.491Z" fill="black"/>
<path fill-rule="evenodd" clip-rule="evenodd" d="M760 632.582C761.333 632.47 762.667 632.356 764 632.244C762.756 633.118 761.35 632.615 760 632.582Z" fill="black"/>
<path fill-rule="evenodd" clip-rule="evenodd" d="M722 552.691C723.333 552.564 724.666 552.436 726 552.309C724.666 552.436 723.333 552.564 722 552.691Z" fill="black"/>
<path fill-rule="evenodd" clip-rule="evenodd" d="M717 536.501C715.996 536.5 714.993 536.5 714 536.499C715.008 536.5 716.004 536.5 717 536.501Z" fill="black"/>
<path fill-rule="evenodd" clip-rule="evenodd" d="M707 538.496C706.331 538.5 705.661 538.502 705 538.504C705.673 538.501 706.336 538.499 707 538.496Z" fill="black"/>
<path fill-rule="evenodd" clip-rule="evenodd" d="M683 541.281C682.664 542.103 680.897 541.998 681.005 541.154C681.669 541.196 682.334 541.239 683 541.281Z" fill="black"/>
<path fill-rule="evenodd" clip-rule="evenodd" d="M636.439 545C636.48 546 636.521 547.002 636.561 548C636.52 546.998 636.48 545.998 636.439 545Z" fill="black"/>
<path fill-rule="evenodd" clip-rule="evenodd" d="M773 550.301C774 550.284 775 550.268 776 550.251C775.012 550.957 774.01 550.858 773 550.301Z" fill="black"/>
<path fill-rule="evenodd" clip-rule="evenodd" d="M735 535.486C734.331 535.496 733.661 535.506 733 535.514C733.673 535.505 734.336 535.496 735 535.486Z" fill="black"/>
<path fill-rule="evenodd" clip-rule="evenodd" d="M709 598.686C710.334 598.561 711.668 598.438 713 598.314C711.666 598.438 710.334 598.562 709 598.686Z" fill="black"/>
<path fill-rule="evenodd" clip-rule="evenodd" d="M693 600.675L697 600.326L693 600.675Z" fill="black"/>
<path fill-rule="evenodd" clip-rule="evenodd" d="M771 630.688C772.333 630.562 773.667 630.437 775 630.312C773.667 630.437 772.333 630.562 771 630.688Z" fill="black"/>
<path fill-rule="evenodd" clip-rule="evenodd" d="M723 636.709C724.336 636.221 725.671 636.054 727 636.721C725.666 636.717 724.333 636.713 723 636.709Z" fill="black"/>
<path fill-rule="evenodd" clip-rule="evenodd" d="M720.88 498.868L719 498.218C721.333 498.189 723.667 498.16 726 498.132C726.005 498.133 721.149 498.889 720.88 498.868Z" fill="black"/>
<path fill-rule="evenodd" clip-rule="evenodd" d="M703 481.501C701.329 481.5 699.658 481.5 698 481.499C699.673 481.501 701.337 481.501 703 481.501Z" fill="black"/>
<path fill-rule="evenodd" clip-rule="evenodd" d="M640 519.727C641.664 519.061 643.331 519.191 645 519.709C643.333 519.715 641.667 519.721 640 519.727Z" fill="black"/>
<path fill-rule="evenodd" clip-rule="evenodd" d="M741 503.482C739.997 503.494 738.993 503.506 738 503.518C739.007 503.505 740.003 503.494 741 503.482Z" fill="black"/>
<path fill-rule="evenodd" clip-rule="evenodd" d="M720 490.337C721.667 490.446 723.335 490.555 725 490.664C723.334 490.554 721.666 490.446 720 490.337Z" fill="black"/>
<path fill-rule="evenodd" clip-rule="evenodd" d="M699 500.677C700.667 500.559 702.334 500.442 704 500.323C702.334 500.442 700.667 500.559 699 500.677Z" fill="black"/>
<path fill-rule="evenodd" clip-rule="evenodd" d="M712 498.669C713.333 498.556 714.666 498.444 716 498.331C714.666 498.444 713.333 498.556 712 498.669Z" fill="black"/>
<path fill-rule="evenodd" clip-rule="evenodd" d="M701 489.336C702.334 489.445 703.667 489.555 705 489.664C703.666 489.554 702.333 489.445 701 489.336Z" fill="black"/>
<path fill-rule="evenodd" clip-rule="evenodd" d="M682 508.521C681.33 508.507 680.662 508.493 680 508.479C680.672 508.493 681.336 508.507 682 508.521Z" fill="black"/>
<path fill-rule="evenodd" clip-rule="evenodd" d="M703 498.562C702.33 498.521 701.661 498.479 701 498.438C701.672 498.479 702.336 498.521 703 498.562Z" fill="black"/>
<path fill-rule="evenodd" clip-rule="evenodd" d="M690 498.527C689.33 498.508 688.66 498.49 688 498.473C688.672 498.492 689.336 498.509 690 498.527Z" fill="black"/>
<path fill-rule="evenodd" clip-rule="evenodd" d="M726 497.597C726 497.856 729.012 496.542 729 497.764L726 497.597Z" fill="black"/>
<path fill-rule="evenodd" clip-rule="evenodd" d="M715 481.499C714.33 481.5 713.661 481.5 713 481.501C713.673 481.5 714.336 481.5 715 481.499Z" fill="black"/>
<path fill-rule="evenodd" clip-rule="evenodd" d="M360 434.076C361.083 429.657 360.788 426.199 364.645 429.023C366.761 430.574 370.251 438.436 369.986 441.099C369.66 444.384 368.162 445.693 365.07 444.648C361.516 443.444 360.106 437.382 360 434.076Z" fill="black"/>
<path fill-rule="evenodd" clip-rule="evenodd" d="M554.83 407.247C563.786 407.247 559.878 416.778 552.413 416.991C548.983 417.09 544.048 416.413 545.16 411.821C545.754 409.37 554.456 406.066 554.83 407.247Z" fill="black"/>
<path fill-rule="evenodd" clip-rule="evenodd" d="M458.774 426C465.239 429.128 456.143 442.863 450.269 439.463C442.747 435.111 456.116 427.96 458.774 426Z" fill="black"/>
<path fill-rule="evenodd" clip-rule="evenodd" d="M443.044 439C445.16 441.308 454.696 449.133 449.44 452.28C442.976 456.149 438.056 443.376 443.044 439Z" fill="black"/>
<path fill-rule="evenodd" clip-rule="evenodd" d="M334.678 433C332.575 428.933 335.469 418.29 341.891 420.235C348.353 422.194 338.234 431.92 334.678 433Z" fill="black"/>
<path fill-rule="evenodd" clip-rule="evenodd" d="M477.34 435.344C481.533 433.656 480.734 438.65 481.368 440.261C482.086 442.091 485.778 446.549 484.852 448.497C483.478 451.388 480.193 449.545 478.409 447.669C475.282 444.378 475.504 439.1 477.34 435.344Z" fill="black"/>
<path fill-rule="evenodd" clip-rule="evenodd" d="M413.44 439.973C409.946 439.973 401.603 429.897 406.505 428.206C412.589 426.108 417.676 440.713 413.44 439.973Z" fill="black"/>
<path fill-rule="evenodd" clip-rule="evenodd" d="M534.208 424C537.409 424.789 541.645 433.851 536.821 434.902C531.481 436.067 530.528 426.506 534.208 424Z" fill="black"/>
<path fill-rule="evenodd" clip-rule="evenodd" d="M514.803 441C512.292 436.166 511.674 425.818 517.803 434.124C519.131 435.923 520.501 435.195 519.819 438.163C519.223 440.754 516.844 441 514.803 441Z" fill="black"/>
<path fill-rule="evenodd" clip-rule="evenodd" d="M382.585 416C385.143 419.851 384.388 431.926 379.042 424.784C376.768 421.748 378.334 416.144 382.585 416Z" fill="black"/>
<path fill-rule="evenodd" clip-rule="evenodd" d="M511.188 53.0979C516.152 51.8164 517.342 63.5193 514.447 64.8093C510.394 66.6146 510.902 55.0555 511.188 53.0979Z" fill="black"/>
<path fill-rule="evenodd" clip-rule="evenodd" d="M825.156 647.649C820.549 647.38 814.095 646.124 821.074 642.854C825.501 640.782 832.084 640.638 836.759 641.488C839.982 642.074 844.817 644.745 839.9 648.208C837.021 650.233 828.656 647.748 825.156 647.649Z" fill="black"/>
<path fill-rule="evenodd" clip-rule="evenodd" d="M819.993 656C818.66 655.85 817.329 655.699 816 655.551C817.068 653.612 820.171 653.205 819.993 656Z" fill="black"/>
<path fill-rule="evenodd" clip-rule="evenodd" d="M826 647.457C827.337 647.486 828.674 647.515 830 647.543C828.659 647.514 827.329 647.486 826 647.457Z" fill="black"/>
</svg>
